<svg width="393" height="657" viewBox="0 0 393 657" fill="none" xmlns="http://www.w3.org/2000/svg">
<g style="mix-blend-mode:multiply">
<path d="M61.8695 472.5L61.8707 472.498L91.1924 422.726C96.5644 413.571 88.5152 402.391 78.1378 404.556L21.5724 416.432C21.5714 416.432 21.5705 416.432 21.5695 416.432C15.4712 417.741 9.30386 414.954 6.25683 409.512C6.25633 409.511 6.25584 409.51 6.25534 409.509L-22.2071 359.204C-27.4391 349.985 -41.1495 351.33 -44.4711 361.412L-62.4549 416.308L-62.4556 416.31C-64.4024 422.206 -69.9404 426.164 -76.1308 426.08C-76.1313 426.08 -76.1319 426.08 -76.1324 426.08L-133.977 425.515C-144.641 425.426 -150.298 437.944 -143.186 445.89L61.8695 472.5ZM61.8695 472.5C58.7304 477.856 59.4186 484.628 63.5714 489.219M61.8695 472.5L63.5714 489.219M63.5714 489.219C63.5721 489.22 63.5727 489.22 63.5733 489.221M63.5714 489.219L63.5733 489.221M63.5733 489.221L102.218 532.265L63.5733 489.221ZM-104.541 488.935L-143.185 445.891L-119.106 573.6C-129.483 575.764 -137.531 564.585 -132.16 555.431C-132.16 555.431 -132.16 555.431 -132.16 555.43L-102.838 505.659L-102.837 505.657C-99.6974 500.299 -100.386 493.527 -104.539 488.936C-104.54 488.936 -104.54 488.936 -104.541 488.935ZM-62.535 561.723L-119.105 573.6L93.0094 552.641L35.1653 552.076C35.1643 552.076 35.1634 552.076 35.1624 552.076C28.9725 551.993 23.4351 555.951 21.4885 561.846L21.4877 561.849L3.50395 616.745C3.50384 616.745 3.50371 616.745 3.50359 616.746C0.181308 626.826 -13.5282 628.171 -18.7601 618.952L-47.2248 568.643L-47.2272 568.639C-50.3021 563.264 -56.464 560.479 -62.5304 561.722L-62.535 561.723ZM102.219 532.267C109.331 540.212 103.674 552.729 93.0108 552.641L102.219 532.267Z" stroke="#E97979" stroke-width="2"/>
</g>
<g style="mix-blend-mode:multiply">
<path d="M433.628 104.132L433.629 104.129L448.994 48.4865C451.799 38.2586 441.13 29.5623 431.679 34.3453L433.628 104.132ZM433.628 104.132C431.991 110.117 434.414 116.473 439.615 119.824C439.615 119.824 439.616 119.825 439.616 119.825L488.087 151.322C497.014 157.141 494.807 170.689 484.494 173.373L428.532 187.854C428.531 187.854 428.531 187.854 428.53 187.854C422.535 189.381 418.219 194.639 417.872 200.835L417.871 200.837M433.628 104.132L417.871 200.837M417.871 200.837L414.778 258.479M417.871 200.837L414.778 258.479M414.778 258.479C414.191 269.069 401.313 273.928 393.87 266.393L414.778 258.479ZM380.181 60.4982L431.678 34.3459L285.261 248.696C275.811 253.479 265.141 244.783 267.947 234.555L283.311 178.912L283.312 178.91C284.95 172.925 282.526 166.568 277.326 163.217C277.325 163.217 277.325 163.217 277.324 163.216L228.853 131.72C219.926 125.9 222.134 112.352 232.447 109.668L288.409 95.1873C288.409 95.1871 288.41 95.187 288.41 95.1869C294.406 93.66 298.722 88.4021 299.069 82.2066L299.069 82.2043L302.162 24.562C302.749 13.9722 315.628 9.11269 323.071 16.6496L363.602 57.7969C363.603 57.7974 363.604 57.798 363.604 57.7986C367.958 62.2592 374.634 63.347 380.179 60.4993C380.18 60.4989 380.181 60.4986 380.181 60.4982ZM336.763 222.541L285.262 248.695L393.869 266.392L353.335 225.241L353.331 225.238C348.968 220.849 342.298 219.763 336.767 222.539L336.763 222.541Z" stroke="#E97979" stroke-width="2"/>
</g>
</svg>
