<svg width="101" height="89" viewBox="0 0 101 89" fill="none" xmlns="http://www.w3.org/2000/svg">
<path d="M53.3559 13.4221L70.4241 0.975599C73.813 -1.48906 78.5377 1.22207 78.0924 5.38734L75.8167 26.3369C75.594 28.4319 76.7566 30.4283 78.6861 31.2663L98.0548 39.7693C101.914 41.47 101.914 46.8922 98.0548 48.5928L78.6861 57.0959C76.7566 57.9339 75.594 59.9303 75.8167 62.0252L78.0924 82.9748C78.5377 87.1401 73.813 89.8512 70.4241 87.3866L53.3559 74.94C51.6491 73.7077 49.3486 73.7077 47.6418 74.94L30.5736 87.3866C27.1847 89.8512 22.4601 87.1401 22.9053 82.9748L25.1811 62.0252C25.4037 59.9303 24.2411 57.9339 22.3117 57.0959L2.943 48.5928C-0.915895 46.8922 -0.915895 41.47 2.943 39.7693L22.3117 31.2663C24.2411 30.4283 25.4037 28.4319 25.1811 26.3369L22.9053 5.38734C22.4601 1.22207 27.1847 -1.48906 30.5736 0.975599L47.6418 13.4221C49.3486 14.6791 51.6491 14.6791 53.3559 13.4221Z" fill="#FEDF41"/>
</svg>
