<svg width="393" height="1594" viewBox="0 0 393 1594" fill="none" xmlns="http://www.w3.org/2000/svg">
<g clip-path="url(#clip0_444_23)">
<path d="M393 124H0V1594H393V124Z" fill="#EE5E37"/>
<path d="M196.5 75.7204L237.669 15.3833C257.266 -13.4428 302.242 1.25287 301.396 36.1551L299.422 109.21C299.422 109.21 380.5 63.5 393 83C393 98 393 118.5 393 150L363.009 196.96L355.5 246C388.915 255.891 348.415 265.609 315 275.5L362.868 305.34L368.084 351C389.374 378.696 380.21 429.123 347.5 417.395L299.422 392.949L292.5 453.5C293.487 488.402 257.407 482.185 237.669 453.5L196.5 426.439L155.331 466.004C135.734 494.83 101.654 461.341 102.5 426.439L93.5778 392.949L58.0001 417.395C25.2906 429.123 16.7107 378.554 38.0001 351L29.9916 305.199L24.916 293C-8.49841 283.109 34.0855 247.891 67.5 238L29.9916 196.819L0.500046 184.5C0.50002 161.5 0 103.5 0 83.5C11.5 63.5 93.5778 109.068 93.5778 109.068L91.604 36.0138C90.617 1.11157 135.593 -13.4428 155.331 15.242L196.5 75.7204Z" fill="#EE5E37"/>
<path d="M154.194 245.305C186.119 242.16 209.45 213.73 206.305 181.805C203.16 149.88 174.73 126.55 142.805 129.695C110.88 132.84 87.5495 161.269 90.6946 193.194C93.8396 225.119 122.269 248.45 154.194 245.305Z" fill="#FCFCFC"/>
<path d="M153.411 218.103C172.19 216.253 185.914 199.529 184.064 180.75C182.214 161.971 165.491 148.247 146.711 150.097C127.932 151.947 114.208 168.67 116.058 187.449C117.908 206.229 134.631 219.953 153.411 218.103Z" fill="url(#paint0_linear_444_23)"/>
<path d="M165.362 182.593C173.813 181.76 179.989 174.235 179.156 165.784C178.324 157.333 170.798 151.158 162.348 151.99C153.897 152.823 147.721 160.348 148.554 168.799C149.386 177.25 156.912 183.426 165.362 182.593Z" fill="white"/>
<path d="M248.97 245.305C280.895 242.16 304.226 213.73 301.081 181.805C297.936 149.88 269.506 126.55 237.581 129.695C205.656 132.84 182.325 161.269 185.47 193.194C188.615 225.119 217.045 248.45 248.97 245.305Z" fill="#FCFCFC"/>
<path d="M244.395 218.103C263.175 216.253 276.899 199.529 275.049 180.75C273.199 161.971 256.475 148.247 237.696 150.097C218.917 151.947 205.193 168.67 207.043 187.449C208.893 206.229 225.616 219.953 244.395 218.103Z" fill="url(#paint1_linear_444_23)"/>
<path d="M256.347 182.593C264.798 181.76 270.974 174.235 270.141 165.784C269.309 157.333 261.783 151.158 253.332 151.99C244.882 152.823 238.706 160.348 239.538 168.799C240.371 177.25 247.896 183.426 256.347 182.593Z" fill="white"/>
</g>
<defs>
<linearGradient id="paint0_linear_444_23" x1="146.711" y1="150.096" x2="153.411" y2="218.103" gradientUnits="userSpaceOnUse">
<stop stop-color="#030303"/>
<stop offset="1" stop-color="#615F5F"/>
</linearGradient>
<linearGradient id="paint1_linear_444_23" x1="237.696" y1="150.096" x2="244.395" y2="218.103" gradientUnits="userSpaceOnUse">
<stop stop-color="#030303"/>
<stop offset="1" stop-color="#615F5F"/>
</linearGradient>
<clipPath id="clip0_444_23">
<rect width="393" height="1594" fill="white"/>
</clipPath>
</defs>
</svg>
