<svg width="585" height="323" viewBox="0 0 585 323" fill="none" xmlns="http://www.w3.org/2000/svg">
<path d="M290.5 86.6794L335.507 19.4122C356.93 -12.7241 406.91 3.10534 406.325 41.7849L404.874 122.748L480.703 94.9708C516.827 81.6465 548.144 123.95 524.834 154.695L476.21 219.333L553.9 241.487C591.022 252.109 591.499 304.558 554.576 315.854L477.146 339.418L526.937 403.162C550.804 433.634 520.26 476.343 483.9 463.678L407.732 437.127L410.655 518.05C412.1 556.711 362.415 573.29 340.256 541.707L294.034 475.269L249.027 542.536C227.604 574.672 177.624 558.843 178.209 520.163L179.66 439.2L103.83 466.978C67.707 480.302 36.3894 437.998 59.7001 407.254L108.324 342.615L30.6339 320.462C-6.48841 309.839 -6.96531 257.39 29.9577 246.094L107.232 222.531L57.4409 158.788C33.5736 128.316 64.1181 85.6063 100.478 98.2715L176.8 124.665L173.877 43.742C172.432 5.08081 222.118 -11.4983 244.277 20.0851L290.5 86.6794Z" fill="#EE5E37"/>
<circle cx="241.746" cy="200.66" r="62.0459" transform="rotate(-6.14717 241.746 200.66)" fill="#FCFCFC"/>
<circle cx="243.38" cy="197.014" r="36.4976" transform="rotate(-6.14717 243.38 197.014)" fill="url(#paint0_linear_642_22)"/>
<circle cx="257.952" cy="178.927" r="16.4244" transform="rotate(-6.14717 257.952 178.927)" fill="white"/>
<circle cx="342.978" cy="199.74" r="62.0459" transform="rotate(-6.14717 342.978 199.74)" fill="#FCFCFC"/>
<circle cx="340.565" cy="196.13" r="36.4976" transform="rotate(-6.14717 340.565 196.13)" fill="url(#paint1_linear_642_22)"/>
<circle cx="355.134" cy="178.043" r="16.4244" transform="rotate(-6.14717 355.134 178.043)" fill="white"/>
<defs>
<linearGradient id="paint0_linear_642_22" x1="243.38" y1="160.516" x2="243.38" y2="233.511" gradientUnits="userSpaceOnUse">
<stop stop-color="#030303"/>
<stop offset="1" stop-color="#615F5F"/>
</linearGradient>
<linearGradient id="paint1_linear_642_22" x1="340.565" y1="159.633" x2="340.565" y2="232.628" gradientUnits="userSpaceOnUse">
<stop stop-color="#030303"/>
<stop offset="1" stop-color="#615F5F"/>
</linearGradient>
</defs>
</svg>
