<svg width="523" height="1417" viewBox="0 0 523 1417" fill="none" xmlns="http://www.w3.org/2000/svg">
<rect x="65" y="137" width="393" height="1280" fill="#EE5E37"/>
<path d="M261.5 75.7204L302.669 15.3833C322.266 -13.4428 367.242 1.25287 366.396 36.1551L364.422 109.21L433.084 84.7639C465.794 73.0356 493.709 111.471 472.42 139.025L428.008 196.96L497.939 217.59C531.354 227.482 531.354 274.819 497.939 284.71L427.867 305.34L472.279 363.275C493.568 390.971 465.653 429.265 432.943 417.536L364.422 392.949L366.396 466.004C367.383 500.906 322.407 515.461 302.669 486.776L261.5 426.439L220.331 486.776C200.734 515.602 155.758 500.906 156.604 466.004L158.578 392.949L89.916 417.395C57.2064 429.123 29.2905 390.689 50.5799 363.134L94.9916 305.199L25.0609 284.569C-8.35362 274.677 -8.35362 227.34 25.0609 217.449L94.9916 196.819L50.5799 138.884C29.2905 111.188 57.2064 72.8943 89.916 84.6226L158.578 109.068L156.604 36.0138C155.617 1.11157 200.593 -13.4428 220.331 15.242L261.5 75.7204Z" fill="#EE5E37"/>
<circle cx="193.295" cy="229.295" r="84.4246" transform="rotate(-5.62621 193.295 229.295)" fill="#FCFCFC"/>
<circle cx="195.564" cy="224.353" r="49.6615" transform="rotate(-5.62621 195.564 224.353)" fill="url(#paint0_linear_91_2)"/>
<circle cx="215.613" cy="199.923" r="22.3477" transform="rotate(-5.62621 215.613 199.923)" fill="white"/>
<circle cx="331.048" cy="229.295" r="84.4246" transform="rotate(-5.62621 331.048 229.295)" fill="#FCFCFC"/>
<circle cx="327.807" cy="224.353" r="49.6615" transform="rotate(-5.62621 327.807 224.353)" fill="url(#paint1_linear_91_2)"/>
<circle cx="347.856" cy="199.923" r="22.3477" transform="rotate(-5.62621 347.856 199.923)" fill="white"/>
<defs>
<linearGradient id="paint0_linear_91_2" x1="195.564" y1="174.691" x2="195.564" y2="274.015" gradientUnits="userSpaceOnUse">
<stop stop-color="#030303"/>
<stop offset="1" stop-color="#615F5F"/>
</linearGradient>
<linearGradient id="paint1_linear_91_2" x1="327.807" y1="174.691" x2="327.807" y2="274.015" gradientUnits="userSpaceOnUse">
<stop stop-color="#030303"/>
<stop offset="1" stop-color="#615F5F"/>
</linearGradient>
</defs>
</svg>
