<svg width="393" height="1594" viewBox="0 0 393 1594" fill="none" xmlns="http://www.w3.org/2000/svg">
<rect y="124" width="393" height="1470" fill="#EE5E37"/>
<path d="M196.5 75.7204L237.669 15.3833C257.266 -13.4428 302.242 1.25287 301.396 36.1551L299.422 109.21C299.422 109.21 380.5 63.5 393 83C393 98 393 118.5 393 150L363.009 196.96L355.5 246C388.915 255.891 348.415 265.609 315 275.5L362.868 305.34L368.084 351C389.374 378.696 380.21 429.123 347.5 417.395L299.422 392.949L292.5 453.5C293.487 488.402 257.407 482.185 237.669 453.5L196.5 426.439L155.331 466.004C135.734 494.83 101.654 461.341 102.5 426.439L93.5778 392.949L58.0001 417.395C25.2906 429.123 16.7107 378.554 38.0001 351L29.9916 305.199L24.916 293C-8.49846 283.109 34.0855 247.891 67.5 238L29.9916 196.819L0.5 184.5C0.499974 161.5 -4.57764e-05 103.5 -4.57764e-05 83.5C11.5 63.5 93.5778 109.068 93.5778 109.068L91.604 36.0138C90.617 1.11157 135.593 -13.4428 155.331 15.242L196.5 75.7204Z" fill="#EE5E37"/>
<circle cx="128.295" cy="229.295" r="84.4246" transform="rotate(-5.62621 128.295 229.295)" fill="#FCFCFC"/>
<circle cx="130.564" cy="224.353" r="49.6615" transform="rotate(-5.62621 130.564 224.353)" fill="url(#paint0_linear_224_20)"/>
<circle cx="150.613" cy="199.923" r="22.3477" transform="rotate(-5.62621 150.613 199.923)" fill="white"/>
<circle cx="266.048" cy="229.295" r="84.4246" transform="rotate(-5.62621 266.048 229.295)" fill="#FCFCFC"/>
<circle cx="262.807" cy="224.353" r="49.6615" transform="rotate(-5.62621 262.807 224.353)" fill="url(#paint1_linear_224_20)"/>
<circle cx="282.856" cy="199.923" r="22.3477" transform="rotate(-5.62621 282.856 199.923)" fill="white"/>
<defs>
<linearGradient id="paint0_linear_224_20" x1="130.564" y1="174.691" x2="130.564" y2="274.015" gradientUnits="userSpaceOnUse">
<stop stop-color="#030303"/>
<stop offset="1" stop-color="#615F5F"/>
</linearGradient>
<linearGradient id="paint1_linear_224_20" x1="262.807" y1="174.691" x2="262.807" y2="274.015" gradientUnits="userSpaceOnUse">
<stop stop-color="#030303"/>
<stop offset="1" stop-color="#615F5F"/>
</linearGradient>
</defs>
</svg>
