<svg width="84" height="102" viewBox="0 0 84 102" fill="none" xmlns="http://www.w3.org/2000/svg">
<path d="M41.8697 33.734L48.4614 24.0732C51.5992 19.4578 58.8004 21.8108 58.665 27.3991L58.3489 39.0961L69.3426 35.182C74.5799 33.3042 79.0496 39.4581 75.6409 43.8699L68.53 53.1461L79.7268 56.4493C85.0769 58.0331 85.0769 65.6124 79.7268 67.1961L68.5074 70.4993L75.6183 79.7755C79.027 84.21 74.5573 90.3413 69.3201 88.4634L58.3489 84.5267L58.665 96.2237C58.823 101.812 51.6218 104.142 48.4614 99.5496L41.8697 89.8888L35.278 99.5496C32.1402 104.165 24.939 101.812 25.0744 96.2237L25.3905 84.5267L14.3968 88.4408C9.15953 90.3186 4.68981 84.1647 8.09853 79.7529L15.2094 70.4767L4.01258 67.1735C-1.33753 65.5898 -1.33753 58.0104 4.01258 56.4267L15.2094 53.1235L8.09853 43.8473C4.68981 39.4129 9.15953 33.2815 14.3968 35.1594L25.3905 39.0735L25.0744 27.3765C24.9164 21.7881 32.1176 19.4578 35.278 24.0506L41.8697 33.734Z" fill="#FEDF41"/>
<circle cx="30.3853" cy="61.5657" r="14.6632" transform="rotate(-5.62621 30.3853 61.5657)" fill="#FCFCFC"/>
<circle cx="30.7793" cy="60.7074" r="8.62541" transform="rotate(-5.62621 30.7793 60.7074)" fill="url(#paint0_linear_133_393)"/>
<circle cx="34.2616" cy="56.4643" r="3.88143" transform="rotate(-5.62621 34.2616 56.4643)" fill="white"/>
<circle cx="54.3106" cy="61.5658" r="14.6632" transform="rotate(-5.62621 54.3106 61.5658)" fill="#FCFCFC"/>
<circle cx="53.7478" cy="60.7074" r="8.62541" transform="rotate(-5.62621 53.7478 60.7074)" fill="url(#paint1_linear_133_393)"/>
<circle cx="57.2298" cy="56.4643" r="3.88143" transform="rotate(-5.62621 57.2298 56.4643)" fill="white"/>
<g filter="url(#filter0_d_133_393)">
<mask id="path-8-outside-1_133_393" maskUnits="userSpaceOnUse" x="31.6145" y="11" width="23" height="37" fill="black">
<rect fill="white" x="31.6145" y="11" width="23" height="37"/>
<path d="M39.5656 36.8615V36.0852C39.5656 34.7455 39.7787 33.5581 40.205 32.523C40.6616 31.4878 41.2249 30.5592 41.8947 29.7372C42.595 28.8847 43.3104 28.1083 44.0411 27.4081C45.0763 26.4338 45.9897 25.49 46.7813 24.5766C47.6033 23.6632 48.0143 22.5976 48.0143 21.3798C48.0143 20.6187 47.8316 19.9336 47.4663 19.3247C47.1009 18.6853 46.5529 18.183 45.8222 17.8176C45.122 17.4218 44.2543 17.2239 43.2191 17.2239C41.7881 17.2239 40.5551 17.6654 39.5199 18.5483C38.5152 19.4008 37.8758 20.5578 37.6018 22.0192L32.8066 20.8774C33.0806 19.2029 33.6895 17.7415 34.6334 16.4932C35.6076 15.2145 36.8255 14.225 38.2869 13.5248C39.7787 12.7941 41.4532 12.4287 43.3104 12.4287C45.4112 12.4287 47.2075 12.855 48.6993 13.7074C50.2216 14.5295 51.3786 15.6103 52.1702 16.9499C52.9618 18.2895 53.3576 19.7357 53.3576 21.2885C53.3576 22.5367 53.0988 23.6632 52.5812 24.668C52.0941 25.6422 51.4547 26.5404 50.6631 27.3624C49.902 28.1845 49.1104 28.9913 48.2883 29.7829C47.3141 30.7267 46.4464 31.7162 45.6852 32.7513C44.9545 33.756 44.5892 34.9434 44.5892 36.3135V36.8615H39.5656ZM39.5656 47V41.0631H44.8175V47H39.5656Z"/>
</mask>
<path d="M39.5656 36.8615V36.0852C39.5656 34.7455 39.7787 33.5581 40.205 32.523C40.6616 31.4878 41.2249 30.5592 41.8947 29.7372C42.595 28.8847 43.3104 28.1083 44.0411 27.4081C45.0763 26.4338 45.9897 25.49 46.7813 24.5766C47.6033 23.6632 48.0143 22.5976 48.0143 21.3798C48.0143 20.6187 47.8316 19.9336 47.4663 19.3247C47.1009 18.6853 46.5529 18.183 45.8222 17.8176C45.122 17.4218 44.2543 17.2239 43.2191 17.2239C41.7881 17.2239 40.5551 17.6654 39.5199 18.5483C38.5152 19.4008 37.8758 20.5578 37.6018 22.0192L32.8066 20.8774C33.0806 19.2029 33.6895 17.7415 34.6334 16.4932C35.6076 15.2145 36.8255 14.225 38.2869 13.5248C39.7787 12.7941 41.4532 12.4287 43.3104 12.4287C45.4112 12.4287 47.2075 12.855 48.6993 13.7074C50.2216 14.5295 51.3786 15.6103 52.1702 16.9499C52.9618 18.2895 53.3576 19.7357 53.3576 21.2885C53.3576 22.5367 53.0988 23.6632 52.5812 24.668C52.0941 25.6422 51.4547 26.5404 50.6631 27.3624C49.902 28.1845 49.1104 28.9913 48.2883 29.7829C47.3141 30.7267 46.4464 31.7162 45.6852 32.7513C44.9545 33.756 44.5892 34.9434 44.5892 36.3135V36.8615H39.5656ZM39.5656 47V41.0631H44.8175V47H39.5656Z" fill="white"/>
<path d="M39.5656 36.8615H39.0692V37.3579H39.5656V36.8615ZM40.205 32.523L39.7506 32.3226L39.7459 32.334L40.205 32.523ZM41.8947 29.7372L41.5111 29.4221L41.5099 29.4236L41.8947 29.7372ZM44.0411 27.4081L43.7009 27.0466L43.6977 27.0497L44.0411 27.4081ZM46.7813 24.5766L46.4122 24.2445L46.4061 24.2515L46.7813 24.5766ZM47.4663 19.3247L47.0352 19.571L47.0406 19.5801L47.4663 19.3247ZM45.8222 17.8176L45.578 18.2498L45.5889 18.256L45.6002 18.2616L45.8222 17.8176ZM39.5199 18.5483L39.8411 18.9268L39.8421 18.926L39.5199 18.5483ZM37.6018 22.0192L37.4869 22.5021L37.9937 22.6227L38.0897 22.1106L37.6018 22.0192ZM32.8066 20.8774L32.3167 20.7973L32.2421 21.2533L32.6916 21.3603L32.8066 20.8774ZM34.6334 16.4932L34.2385 16.1924L34.2374 16.1939L34.6334 16.4932ZM38.2869 13.5248L38.5014 13.9724L38.5052 13.9706L38.2869 13.5248ZM48.6993 13.7074L48.453 14.1386L48.4635 14.1442L48.6993 13.7074ZM52.1702 16.9499L52.5975 16.6974L52.1702 16.9499ZM52.5812 24.668L52.1399 24.4406L52.1372 24.446L52.5812 24.668ZM50.6631 27.3624L50.3055 27.018L50.2989 27.0252L50.6631 27.3624ZM48.2883 29.7829L47.944 29.4253L47.9429 29.4263L48.2883 29.7829ZM45.6852 32.7513L45.2853 32.4573L45.2838 32.4594L45.6852 32.7513ZM44.5892 36.8615V37.3579H45.0856V36.8615H44.5892ZM39.5656 47H39.0692V47.4964H39.5656V47ZM39.5656 41.0631V40.5667H39.0692V41.0631H39.5656ZM44.8175 41.0631H45.3139V40.5667H44.8175V41.0631ZM44.8175 47V47.4964H45.3139V47H44.8175ZM40.062 36.8615V36.0852H39.0692V36.8615H40.062ZM40.062 36.0852C40.062 34.7979 40.2668 33.6766 40.664 32.712L39.7459 32.334C39.2907 33.4397 39.0692 34.6932 39.0692 36.0852H40.062ZM40.6591 32.7234C41.0991 31.7261 41.6396 30.8361 42.2795 30.0508L41.5099 29.4236C40.8102 30.2824 40.2242 31.2495 39.7508 32.3226L40.6591 32.7234ZM42.2783 30.0523C42.9671 29.2137 43.6693 28.452 44.3846 27.7665L43.6977 27.0497C42.9515 27.7647 42.2228 28.5557 41.5111 29.4221L42.2783 30.0523ZM44.3813 27.7696C45.4267 26.7857 46.3521 25.8298 47.1564 24.9017L46.4061 24.2515C45.6273 25.1502 44.7259 26.0819 43.7009 27.0466L44.3813 27.7696ZM47.1502 24.9087C48.0535 23.9051 48.5107 22.7215 48.5107 21.3798H47.5179C47.5179 22.4738 47.1531 23.4214 46.4123 24.2445L47.1502 24.9087ZM48.5107 21.3798C48.5107 20.5354 48.3069 19.7609 47.8919 19.0693L47.0406 19.5801C47.3564 20.1063 47.5179 20.7019 47.5179 21.3798H48.5107ZM47.8973 19.0784C47.4781 18.3448 46.8526 17.7778 46.0442 17.3736L45.6002 18.2616C46.2532 18.5881 46.7238 19.0259 47.0353 19.571L47.8973 19.0784ZM46.0665 17.3855C45.2733 16.9372 44.3159 16.7275 43.2191 16.7275V17.7203C44.1926 17.7203 44.9706 17.9065 45.578 18.2498L46.0665 17.3855ZM43.2191 16.7275C41.6767 16.7275 40.3277 17.2069 39.1978 18.1707L39.8421 18.926C40.7824 18.1239 41.8996 17.7203 43.2191 17.7203V16.7275ZM39.1988 18.1698C38.0961 19.1054 37.4061 20.3695 37.1139 21.9277L38.0897 22.1106C38.3456 20.746 38.9343 19.6962 39.8411 18.9268L39.1988 18.1698ZM37.7168 21.5363L32.9216 20.3945L32.6916 21.3603L37.4869 22.5021L37.7168 21.5363ZM33.2965 20.9576C33.5586 19.3558 34.1382 17.9712 35.0293 16.7926L34.2374 16.1939C33.2409 17.5118 32.6026 19.05 32.3167 20.7973L33.2965 20.9576ZM35.0282 16.7941C35.9544 15.5784 37.1103 14.639 38.5014 13.9724L38.0724 13.0771C36.5407 13.811 35.2608 14.8506 34.2385 16.1924L35.0282 16.7941ZM38.5052 13.9706C39.9214 13.2769 41.5199 12.9251 43.3104 12.9251V11.9323C41.3866 11.9323 39.636 12.3112 38.0685 13.079L38.5052 13.9706ZM43.3104 12.9251C45.3439 12.9251 47.0512 13.3374 48.4531 14.1384L48.9456 13.2764C47.3638 12.3725 45.4785 11.9323 43.3104 11.9323V12.9251ZM48.4635 14.1442C49.9155 14.9283 51.0021 15.949 51.7428 17.2025L52.5975 16.6974C51.755 15.2716 50.5278 14.1306 48.9352 13.2707L48.4635 14.1442ZM51.7428 17.2025C52.4893 18.4658 52.8612 19.8248 52.8612 21.2885H53.854C53.854 19.6467 53.4342 18.1133 52.5975 16.6974L51.7428 17.2025ZM52.8612 21.2885C52.8612 22.4661 52.6176 23.5133 52.1399 24.4406L53.0225 24.8953C53.5799 23.8132 53.854 22.6074 53.854 21.2885H52.8612ZM52.1372 24.446C51.6736 25.3732 51.064 26.2305 50.3055 27.0181L51.0207 27.7067C51.8454 26.8503 52.5145 25.9112 53.0252 24.89L52.1372 24.446ZM50.2989 27.0252C49.5443 27.8401 48.7593 28.6402 47.944 29.4253L48.6327 30.1404C49.4614 29.3424 50.2596 28.5288 51.0273 27.6997L50.2989 27.0252ZM47.9429 29.4263C46.9499 30.3884 46.0637 31.3986 45.2853 32.4573L46.0851 33.0454C46.829 32.0337 47.6782 31.065 48.6337 30.1394L47.9429 29.4263ZM45.2838 32.4594C44.485 33.5577 44.0928 34.8499 44.0928 36.3135H45.0856C45.0856 35.037 45.424 33.9544 46.0867 33.0433L45.2838 32.4594ZM44.0928 36.3135V36.8615H45.0856V36.3135H44.0928ZM44.5892 36.3651H39.5656V37.3579H44.5892V36.3651ZM40.062 47V41.0631H39.0692V47H40.062ZM39.5656 41.5595H44.8175V40.5667H39.5656V41.5595ZM44.3211 41.0631V47H45.3139V41.0631H44.3211ZM44.8175 46.5036H39.5656V47.4964H44.8175V46.5036Z" fill="black" mask="url(#path-8-outside-1_133_393)"/>
</g>
<defs>
<filter id="filter0_d_133_393" x="28.7362" y="9.35103" width="28.692" height="42.7122" filterUnits="userSpaceOnUse" color-interpolation-filters="sRGB">
<feFlood flood-opacity="0" result="BackgroundImageFix"/>
<feColorMatrix in="SourceAlpha" type="matrix" values="0 0 0 0 0 0 0 0 0 0 0 0 0 0 0 0 0 0 127 0" result="hardAlpha"/>
<feOffset dy="0.9928"/>
<feGaussianBlur stdDeviation="2.03524"/>
<feComposite in2="hardAlpha" operator="out"/>
<feColorMatrix type="matrix" values="0 0 0 0 0 0 0 0 0 0 0 0 0 0 0 0 0 0 0.11 0"/>
<feBlend mode="normal" in2="BackgroundImageFix" result="effect1_dropShadow_133_393"/>
<feBlend mode="normal" in="SourceGraphic" in2="effect1_dropShadow_133_393" result="shape"/>
</filter>
<linearGradient id="paint0_linear_133_393" x1="30.7793" y1="52.082" x2="30.7793" y2="69.3329" gradientUnits="userSpaceOnUse">
<stop stop-color="#030303"/>
<stop offset="1" stop-color="#615F5F"/>
</linearGradient>
<linearGradient id="paint1_linear_133_393" x1="53.7478" y1="52.082" x2="53.7478" y2="69.3329" gradientUnits="userSpaceOnUse">
<stop stop-color="#030303"/>
<stop offset="1" stop-color="#615F5F"/>
</linearGradient>
</defs>
</svg>
