<svg width="42" height="41" viewBox="0 0 42 41" fill="none" xmlns="http://www.w3.org/2000/svg">
<circle cx="20.6477" cy="20.5" r="20.5" fill="#FF6F3C"/>
<path d="M31.6477 19.5H22.6477V10.5C22.6477 10.1022 22.4897 9.72064 22.2084 9.43934C21.9271 9.15804 21.5455 9 21.1477 9C20.7499 9 20.3683 9.15804 20.087 9.43934C19.8057 9.72064 19.6477 10.1022 19.6477 10.5V19.5H10.6477C10.2499 19.5 9.86835 19.658 9.58705 19.9393C9.30574 20.2206 9.14771 20.6022 9.14771 21C9.14771 21.3978 9.30574 21.7794 9.58705 22.0607C9.86835 22.342 10.2499 22.5 10.6477 22.5H19.6477V31.5C19.6477 31.8978 19.8057 32.2794 20.087 32.5607C20.3683 32.842 20.7499 33 21.1477 33C21.5455 33 21.9271 32.842 22.2084 32.5607C22.4897 32.2794 22.6477 31.8978 22.6477 31.5V22.5H31.6477C32.0455 22.5 32.4271 22.342 32.7084 22.0607C32.9897 21.7794 33.1477 21.3978 33.1477 21C33.1477 20.6022 32.9897 20.2206 32.7084 19.9393C32.4271 19.658 32.0455 19.5 31.6477 19.5Z" fill="#FCFCFC"/>
</svg>
